<svg width="48" height="48" viewBox="0 0 48 48" fill="none" xmlns="http://www.w3.org/2000/svg">
<g clip-path="url(#clip0_17_568)">
<path d="M3.27273 42.0091H10.9091V23.4636L0 15.2818V38.7363C0 40.5473 1.46727 42.0091 3.27273 42.0091Z" fill="#4285F4"/>
<path d="M37.0909 42.0091H44.7272C46.5382 42.0091 48 40.5418 48 38.7363V15.2818L37.0909 23.4636" fill="#34A853"/>
<path d="M37.0909 9.28201V23.4638L48 15.282V10.9184C48 6.8711 43.38 4.56383 40.1454 6.9911" fill="#FBBC04"/>
<path d="M10.9091 23.4636V9.28177L24 19.1L37.0909 9.28177V23.4636L24 33.2818" fill="#EA4335"/>
<path d="M0 10.9184V15.282L10.9091 23.4638V9.28201L7.85455 6.9911C4.61455 4.56383 0 6.8711 0 10.9184" fill="#C5221F"/>
</g>
<defs>
<clipPath id="clip0_17_568">
<rect width="48" height="48" fill="white"/>
</clipPath>
</defs>
</svg>
