<svg width="14" height="14" viewBox="0 0 14 14" fill="none" xmlns="http://www.w3.org/2000/svg">
<path fill-rule="evenodd" clip-rule="evenodd" d="M12.8015 0.427136C13.371 0.996651 13.371 1.92002 12.8015 2.48953L8.67672 6.61432L12.8015 10.7391C13.371 11.3086 13.371 12.232 12.8015 12.8015C12.232 13.371 11.3086 13.371 10.7391 12.8015L6.61432 8.67672L2.48953 12.8015C1.92002 13.371 0.996651 13.371 0.427137 12.8015C-0.142378 12.232 -0.142378 11.3086 0.427137 10.7391L4.55193 6.61432L0.427136 2.48953C-0.142379 1.92002 -0.142379 0.996652 0.427136 0.427138C0.99665 -0.142377 1.92002 -0.142377 2.48953 0.427138L6.61432 4.55193L10.7391 0.427136C11.3086 -0.142379 12.232 -0.142379 12.8015 0.427136Z" fill="black"/>
</svg>
